<svg id="Capa_1" enable-background="new 0 0 512 512" height="512" viewBox="0 0 512 512" width="512" xmlns="http://www.w3.org/2000/svg"><g><g><path d="m436 0h-360c-24.901 0-45 20.099-45 45v422c0 24.899 20.099 45 45 45h360c24.901 0 45-20.101 45-45v-422c0-24.901-20.099-45-45-45z" fill="#ecf2ff"/></g><path d="m481 45v422c0 24.899-20.099 45-45 45h-180v-512h180c24.901 0 45 20.099 45 45z" fill="#d9e5ff"/><g><path d="m406 60h-300c-8.401 0-15 6.599-15 15v121c0 8.399 6.599 15 15 15h300c8.401 0 15-6.601 15-15v-121c0-8.401-6.599-15-15-15z" fill="#3f6a73"/></g><path d="m421 75v121c0 8.399-6.599 15-15 15h-150v-151h150c8.401 0 15 6.599 15 15z" fill="#285059"/><g><path d="m166 331h-60c-8.291 0-15-6.709-15-15v-60c0-8.291 6.709-15 15-15h60c8.291 0 15 6.709 15 15v60c0 8.291-6.709 15-15 15z" fill="#ffd34d"/></g><g><path d="m166 452h-60c-8.291 0-15-6.709-15-15v-61c0-8.291 6.709-15 15-15h60c8.291 0 15 6.709 15 15v61c0 8.291-6.709 15-15 15z" fill="#ffd34d"/></g><g><path d="m406 452h-60c-8.291 0-15-6.709-15-15v-181c0-8.291 6.709-15 15-15h60c8.291 0 15 6.709 15 15v181c0 8.291-6.709 15-15 15z" fill="#e64551"/></g><g><path d="m346 151h-30c-8.291 0-15-6.709-15-15s6.709-15 15-15h30c8.291 0 15 6.709 15 15s-6.709 15-15 15z" fill="#3dccb4"/></g><g><g><g><path d="m271 136c0 8.399-6.599 15-15 15h-30c-8.401 0-15-6.601-15-15 0-8.401 6.599-15 15-15h30c8.401 0 15 6.599 15 15z" fill="#5ce6b8"/></g></g></g><path d="m271 136c0 8.399-6.599 15-15 15v-30c8.401 0 15 6.599 15 15z" fill="#3dccb4"/><g><path d="m286 361h-60c-8.401 0-15 6.599-15 15v61c0 8.399 6.599 15 15 15h60c8.401 0 15-6.601 15-15v-61c0-8.401-6.599-15-15-15z" fill="#ffd34d"/></g><path d="m301 376v61c0 8.399-6.599 15-15 15h-30v-91h30c8.401 0 15 6.599 15 15z" fill="#fb3"/><g><path d="m286 241h-60c-8.401 0-15 6.599-15 15v60c0 8.399 6.599 15 15 15h60c8.401 0 15-6.601 15-15v-60c0-8.401-6.599-15-15-15z" fill="#ffd34d"/></g><path d="m301 256v60c0 8.399-6.599 15-15 15h-30v-90h30c8.401 0 15 6.599 15 15z" fill="#fb3"/></g></svg>